<svg
  version="1.1"
  id="Layer_1"
  xmlns="http://www.w3.org/2000/svg"
  xmlns:xlink="http://www.w3.org/1999/xlink"
  viewBox="0 0 512 512"
  xml:space="preserve"
  width="300"
  height="300"
>
  <style type="text/css">
    .st0 {
      fill: #f9c802;
    }
    .st1 {
      fill: #a83279;
    }
    .st2 {
      fill: #4d8af0;
    }
    .st3 {
      fill: #333;
    }
    .st4 {
      fill: #ff6f61;
    }
  </style>
  <g id="man">
    <path
      class="st0"
      d="M256,0c-28.7,0-52,23.3-52,52s23.3,52,52,52s52-23.3,52-52S284.7,0,256,0z"
    />
    <path
      class="st1"
      d="M358.4,170.7c-11.3-20.1-35.5-28.1-55.6-16.8l-13.7,7.7c-6.3,3.5-14,3.5-20.3,0l-13.7-7.7c-20.1-11.3-44.3-3.4-55.6,16.8
      c-11.3,20.1-3.4,44.3,16.8,55.6l13.7,7.7c6.3,3.5,14,3.5,20.3,0l13.7-7.7C355,215,369.7,190.8,358.4,170.7z"
    />
    <path
      class="st2"
      d="M420,352.9c-1.5-23.3-21.1-41.2-44.5-39.8c-3.5,0.2-7.1,0.4-10.7,0.4h-31.7c-8.4,0-16.3-3.3-22.4-9.4l-13.3-13.3
      c-9.4-9.4-24.6-9.4-33.9,0l-13.3,13.3c-6.1,6.1-14,9.4-22.4,9.4H147c-30.3,0-55.7,23.2-57.4,53.5c-2.6,45.9,28.9,88.5,74.8,88.5
      h156.3c45.9,0,77.3-42.5,74.8-88.5C420.2,353.4,420.1,353.1,420,352.9z"
    />
  </g>
  <g id="cart">
    <path
      class="st3"
      d="M436.4,140.1H168.5l-10.1-40.3c-2.3-9-10.4-15.4-19.7-15.4h-56.2c-11.2,0-20.2,9.1-20.2,20.2s9.1,20.2,20.2,20.2h42
      l55.4,221.6c2.3,9,10.4,15.4,19.7,15.4h212.4c9.2,0,17.2-6.2,19.5-15l34.5-137.9C459.7,149.1,448.9,140.1,436.4,140.1z"
    />
    <circle class="st4" cx="198.5" cy="436.4" r="34.5" />
    <circle class="st4" cx="396.8" cy="436.4" r="34.5" />
  </g>
</svg>
